<svg xmlns="http://www.w3.org/2000/svg" width="100%" height="100%" preserveAspectRatio="xMidYMid meet" viewBox="-7.015470941951207e-7 0.0000011669922059809323 299.9999694824219 56.290584564208984" overflow="visible"><defs id="SvgjsDefs1022"></defs><g id="SvgjsG1023" transform="scale(1.0700006991146316)" opacity="1"><g id="SvgjsG1024" class="oss5MJzjPR" transform="translate(-5.129279787324027, 0.0000011581871399626881) scale(0.5260799781870796)" light-content="false" non-strokable="false" fill="#ffffff"><path d="M78.5 100H31.43c-6.492-.008-11.75-5.266-11.758-11.758V72.887a1.954 1.954 0 0 1 3.906 0v15.355a7.857 7.857 0 0 0 7.852 7.852H78.5a7.86 7.86 0 0 0 7.851-7.852V70.648c0-1.082.875-1.953 1.953-1.953 1.079 0 1.954.871 1.954 1.953v17.594C90.25 94.734 84.988 99.992 78.5 100zm9.797-32.984a1.954 1.954 0 0 1-1.953-1.953V20.282a3.95 3.95 0 0 0-1.32-2.93L71.02 4.907a3.941 3.941 0 0 0-2.61-1H33.383c-5.418.008-9.805 4.399-9.808 9.813v23.805a1.954 1.954 0 0 1-3.907 0V13.72C19.676 6.15 25.81.013 33.383 0H68.41a7.83 7.83 0 0 1 5.207 1.981l14.004 12.45a7.834 7.834 0 0 1 2.63 5.859v44.773a1.954 1.954 0 0 1-1.953 1.953z"></path><path d="M88.199 21.203H76.531a7.843 7.843 0 0 1-7.836-7.836V2.407c0-1.083.875-1.954 1.953-1.954a1.948 1.948 0 0 1 1.953 1.95v10.964a3.933 3.933 0 0 0 3.93 3.93h11.668a1.954 1.954 0 0 1 0 3.906zM22.98 65.016a1.954 1.954 0 0 1-1.953-1.953s-.016-5.7-.016-7.883v-7.84.004c0-1.082.875-1.953 1.953-1.953h4.04c4.62 0 7.726 3.945 7.726 9.813 0 2.539-.664 4.882-1.875 6.625-1.383 1.984-3.406 3.105-5.695 3.148-1.156.023-4.047.035-4.168.035zm1.926-15.719v5.89c0 1.352 0 4.055.012 5.915.804 0 1.656-.016 2.148-.024 2.57-.05 3.738-3.078 3.738-5.87 0-.977-.183-5.907-3.82-5.907zm23.586 15.719a9.813 9.813 0 0 1-9.066-6.059 9.817 9.817 0 0 1 12.823-12.82 9.81 9.81 0 0 1 6.055 9.067 9.82 9.82 0 0 1-9.812 9.812zm0-15.719a5.91 5.91 0 0 0-5.457 3.648 5.912 5.912 0 0 0 1.281 6.438 5.91 5.91 0 0 0 6.438 1.277 5.903 5.903 0 0 0 3.644-5.457 5.911 5.911 0 0 0-5.906-5.906zM72.07 65.016a9.815 9.815 0 0 1-7.89-3.973 9.813 9.813 0 0 1 13.374-13.972 1.954 1.954 0 0 1 .598 2.754 1.954 1.954 0 0 1-2.777.48 5.913 5.913 0 0 0-8.953 3.172 5.907 5.907 0 0 0 5.652 7.633c1.203 0 2.219-.36 3.015-1.063h-.003c.16-.144.304-.297.441-.46v.003a1.952 1.952 0 0 1 2.754-.234c.828.695.93 1.93.234 2.754a7.863 7.863 0 0 1-.832.86c-1.511 1.335-3.453 2.046-5.613 2.046zM19.586 84.18h-3a6.836 6.836 0 0 1 0-13.672h8.871a1.954 1.954 0 0 1 0 3.906h-8.871a2.93 2.93 0 0 0 0 5.86h3.008a1.954 1.954 0 0 1 0 3.906z"></path><path d="M11.727 78.734a1.954 1.954 0 0 1-1.953-1.953l.086-34.375a6.833 6.833 0 0 1 6.836-6.824l71.609-.016-.004.004a1.95 1.95 0 0 1 1.953 1.953v34.938a1.95 1.95 0 0 1-1.953 1.953H18.645a1.954 1.954 0 0 1 0-3.906h67.699V39.461l-69.656.016a2.93 2.93 0 0 0-2.93 2.93l-.086 34.374h.004c0 1.078-.871 1.95-1.95 1.953z"></path></g><g id="SvgjsG1025" class="text" transform="translate(172.283648890858, 41.9639984741211) scale(1)" light-content="false" fill="#ffffff"><path d="M-105.63 0C-103.99 0.24 -102.53 0.36 -101.25 0.36C-99.93 0.36 -98.61 0.24 -97.29 0C-97.81 -1.48 -98.11 -4.78 -98.19 -9.9C-96.91 -9.7 -95.69 -9.6 -94.53 -9.6C-91.85 -9.6 -89.48 -10.1 -87.42 -11.1C-85.36 -12.1 -83.75 -13.49 -82.59 -15.27C-81.43 -17.05 -80.85 -19.08 -80.85 -21.36C-80.85 -24.76 -81.98 -27.37 -84.24 -29.19C-86.5 -31.01 -89.73 -31.92 -93.93 -31.92C-96.17 -31.92 -98.41 -31.77 -100.65 -31.47C-102.89 -31.17 -104.65 -30.78 -105.93 -30.3C-105.29 -28.74 -104.97 -24.54 -104.97 -17.7C-104.97 -14.7 -105.03 -11.49 -105.15 -8.07C-105.27 -4.65 -105.43 -1.96 -105.63 0ZM-89.34 -16.41C-90.12 -15.07 -91.11 -14.08 -92.31 -13.44C-93.67 -13.44 -95.65 -13.84 -98.25 -14.64C-98.25 -18.12 -98.13 -22.22 -97.89 -26.94C-97.13 -27.14 -96.23 -27.24 -95.19 -27.24C-90.51 -27.24 -88.17 -25.12 -88.17 -20.88C-88.17 -19.24 -88.56 -17.75 -89.34 -16.41Z M-56.01 -0.12C-54.57 0.16 -53.23 0.3 -51.99 0.3C-50.47 0.3 -49.07 0.16 -47.79 -0.12C-48.91 -2.12 -50.89 -6.84 -53.73 -14.28C-56.57 -21.72 -58.69 -27.54 -60.09 -31.74C-61.29 -31.94 -62.39 -32.04 -63.39 -32.04C-64.35 -32.04 -65.53 -31.94 -66.93 -31.74C-68.33 -27.54 -70.45 -21.72 -73.29 -14.28C-76.13 -6.84 -78.11 -2.12 -79.23 -0.12C-78.27 0.12 -77.33 0.24 -76.41 0.24C-75.69 0.24 -74.89 0.12 -74.01 -0.12C-72.93 -3.24 -72.05 -5.7 -71.37 -7.5C-70.25 -7.66 -68.33 -7.74 -65.61 -7.74C-63.09 -7.74 -60.77 -7.68 -58.65 -7.56C-58.13 -6.16 -57.25 -3.68 -56.01 -0.12ZM-60.27 -12C-61.47 -11.92 -62.49 -11.88 -63.33 -11.88C-65.61 -11.88 -67.73 -11.94 -69.69 -12.06C-67.85 -17.06 -66.29 -21.12 -65.01 -24.24C-63.73 -21.28 -62.15 -17.2 -60.27 -12Z M-45.63 -1.5C-42.47 -0.06 -38.77 0.66 -34.53 0.66C-30.29 0.66 -27.11 -0.13 -24.99 -1.71C-22.87 -3.29 -21.81 -5.54 -21.81 -8.46C-21.81 -10.3 -22.27 -11.86 -23.19 -13.14C-24.11 -14.42 -25.23 -15.46 -26.55 -16.26C-27.87 -17.06 -29.55 -17.94 -31.59 -18.9C-33.87 -19.98 -35.52 -20.9 -36.54 -21.66C-37.56 -22.42 -38.07 -23.38 -38.07 -24.54C-38.07 -25.42 -37.77 -26.17 -37.17 -26.79C-36.57 -27.41 -35.93 -27.78 -35.25 -27.9C-34.01 -27.9 -32.48 -27.47 -30.66 -26.61C-28.84 -25.75 -27.05 -24.64 -25.29 -23.28C-24.65 -24.12 -24.1 -25.26 -23.64 -26.7C-23.18 -28.14 -22.95 -29.42 -22.95 -30.54C-25.59 -31.5 -28.79 -31.98 -32.55 -31.98C-36.47 -31.98 -39.59 -31.18 -41.91 -29.58C-44.23 -27.98 -45.39 -25.88 -45.39 -23.28C-45.39 -21.48 -44.91 -19.93 -43.95 -18.63C-42.99 -17.33 -41.86 -16.27 -40.56 -15.45C-39.26 -14.63 -37.55 -13.72 -35.43 -12.72C-33.23 -11.68 -31.62 -10.79 -30.6 -10.05C-29.58 -9.31 -29.07 -8.4 -29.07 -7.32C-29.07 -6.08 -29.58 -5.12 -30.6 -4.44C-31.62 -3.76 -33.07 -3.42 -34.95 -3.42C-36.95 -3.42 -38.81 -3.69 -40.53 -4.23C-42.25 -4.77 -43.61 -5.52 -44.61 -6.48C-44.97 -5.68 -45.23 -4.9 -45.39 -4.14C-45.55 -3.38 -45.63 -2.5 -45.63 -1.5Z M-17.97 -1.5C-14.81 -0.06 -11.11 0.66 -6.87 0.66C-2.63 0.66 0.55 -0.13 2.67 -1.71C4.79 -3.29 5.85 -5.54 5.85 -8.46C5.85 -10.3 5.39 -11.86 4.47 -13.14C3.55 -14.42 2.43 -15.46 1.11 -16.26C-0.21 -17.06 -1.89 -17.94 -3.93 -18.9C-6.21 -19.98 -7.86 -20.9 -8.88 -21.66C-9.9 -22.42 -10.41 -23.38 -10.41 -24.54C-10.41 -25.42 -10.11 -26.17 -9.51 -26.79C-8.91 -27.41 -8.27 -27.78 -7.59 -27.9C-6.35 -27.9 -4.82 -27.47 -3 -26.61C-1.18 -25.75 0.61 -24.64 2.37 -23.28C3.01 -24.12 3.56 -25.26 4.02 -26.7C4.48 -28.14 4.71 -29.42 4.71 -30.54C2.07 -31.5 -1.13 -31.98 -4.89 -31.98C-8.81 -31.98 -11.93 -31.18 -14.25 -29.58C-16.57 -27.98 -17.73 -25.88 -17.73 -23.28C-17.73 -21.48 -17.25 -19.93 -16.29 -18.63C-15.33 -17.33 -14.2 -16.27 -12.9 -15.45C-11.6 -14.63 -9.89 -13.72 -7.77 -12.72C-5.57 -11.68 -3.96 -10.79 -2.94 -10.05C-1.92 -9.31 -1.41 -8.4 -1.41 -7.32C-1.41 -6.08 -1.92 -5.12 -2.94 -4.44C-3.96 -3.76 -5.41 -3.42 -7.29 -3.42C-9.29 -3.42 -11.15 -3.69 -12.87 -4.23C-14.59 -4.77 -15.95 -5.52 -16.95 -6.48C-17.31 -5.68 -17.57 -4.9 -17.73 -4.14C-17.89 -3.38 -17.97 -2.5 -17.97 -1.5Z M16.5 0.09C18.52 0.27 20.47 0.36 22.35 0.36C25.91 0.36 29.08 -0.33 31.86 -1.71C34.64 -3.09 36.8 -5.01 38.34 -7.47C39.88 -9.93 40.65 -12.76 40.65 -15.96C40.65 -21.08 39.17 -25.02 36.21 -27.78C33.25 -30.54 29.03 -31.92 23.55 -31.92C21.15 -31.92 18.8 -31.77 16.5 -31.47C14.2 -31.17 12.35 -30.78 10.95 -30.3C11.59 -28.74 11.91 -24.64 11.91 -18C11.91 -15 11.85 -11.83 11.73 -8.49C11.61 -5.15 11.45 -2.52 11.25 -0.6C12.73 -0.32 14.48 -0.09 16.5 0.09ZM29.25 -5.55C28.01 -4.41 26.65 -3.72 25.17 -3.48C23.69 -3.48 21.59 -3.88 18.87 -4.68C18.71 -6.72 18.63 -9.7 18.63 -13.62C18.63 -18.62 18.75 -23 18.99 -26.76C19.95 -27.08 21.05 -27.24 22.29 -27.24C29.65 -27.24 33.33 -23.12 33.33 -14.88C33.33 -13.16 32.96 -11.46 32.22 -9.78C31.48 -8.1 30.49 -6.69 29.25 -5.55Z M51.84 -1.17C54.06 0.13 56.61 0.78 59.49 0.78C62.93 0.78 66.01 0.05 68.73 -1.41C71.45 -2.87 73.56 -4.89 75.06 -7.47C76.56 -10.05 77.31 -13 77.31 -16.32C77.31 -19.44 76.68 -22.19 75.42 -24.57C74.16 -26.95 72.39 -28.8 70.11 -30.12C67.83 -31.44 65.19 -32.1 62.19 -32.1C58.83 -32.1 55.83 -31.36 53.19 -29.88C50.55 -28.4 48.5 -26.34 47.04 -23.7C45.58 -21.06 44.85 -18.04 44.85 -14.64C44.85 -11.6 45.46 -8.92 46.68 -6.6C47.9 -4.28 49.62 -2.47 51.84 -1.17ZM67.53 -6.03C65.89 -4.09 63.67 -3.12 60.87 -3.12C58.27 -3.12 56.17 -4.15 54.57 -6.21C52.97 -8.27 52.17 -11 52.17 -14.4C52.17 -16.6 52.59 -18.57 53.43 -20.31C54.27 -22.05 55.43 -23.41 56.91 -24.39C58.39 -25.37 60.05 -25.86 61.89 -25.86C64.37 -25.34 66.34 -23.99 67.8 -21.81C69.26 -19.63 69.99 -17 69.99 -13.92C69.99 -10.6 69.17 -7.97 67.53 -6.03Z M85.17 -3.27C87.61 -0.65 91.09 0.66 95.61 0.66C97.97 0.66 100.29 0.17 102.57 -0.81C104.85 -1.79 106.69 -3.08 108.09 -4.68L107.31 -7.68C106.15 -6.92 104.71 -6.32 102.99 -5.88C101.27 -5.44 99.53 -5.22 97.77 -5.22C94.93 -5.22 92.73 -6.13 91.17 -7.95C89.61 -9.77 88.83 -12.5 88.83 -16.14C88.83 -17.9 89.13 -19.62 89.73 -21.3C90.33 -22.98 91.14 -24.41 92.16 -25.59C93.18 -26.77 94.29 -27.52 95.49 -27.84C96.53 -27.84 97.95 -27.4 99.75 -26.52C101.55 -25.64 103.25 -24.56 104.85 -23.28C105.45 -23.96 106 -25.05 106.5 -26.55C107 -28.05 107.25 -29.38 107.25 -30.54C104.93 -31.5 101.95 -31.98 98.31 -31.98C95.03 -31.98 92.12 -31.24 89.58 -29.76C87.04 -28.28 85.06 -26.21 83.64 -23.55C82.22 -20.89 81.51 -17.86 81.51 -14.46C81.51 -9.62 82.73 -5.89 85.17 -3.27Z"></path></g></g></svg>