<?xml version="1.0" encoding="UTF-8" standalone="no"?>
<svg
   id="SvgjsSvg1021"
   width="46"
   height="56.291"
   version="1.1"
   xlink="http://www.w3.org/1999/xlink"
   preserveAspectRatio="xMidYMid"
   viewBox="-7.0154709e-07 1.1669922e-06 46 56.291"
   overflow="visible"
   sodipodi:docname="logo_icon.svg"
   inkscape:version="1.2.2 (b0a8486541, 2022-12-01)"
   xmlns:inkscape="http://www.inkscape.org/namespaces/inkscape"
   xmlns:sodipodi="http://sodipodi.sourceforge.net/DTD/sodipodi-0.dtd"
   xmlns="http://www.w3.org/2000/svg"
   xmlns:svg="http://www.w3.org/2000/svg">
  <sodipodi:namedview
     id="namedview15"
     pagecolor="#ffffff"
     bordercolor="#000000"
     borderopacity="0.25"
     inkscape:showpageshadow="2"
     inkscape:pageopacity="0.0"
     inkscape:pagecheckerboard="0"
     inkscape:deskcolor="#d1d1d1"
     showgrid="false"
     inkscape:zoom="4.6500005"
     inkscape:cx="150.10751"
     inkscape:cy="28.17204"
     inkscape:window-width="1920"
     inkscape:window-height="1000"
     inkscape:window-x="0"
     inkscape:window-y="0"
     inkscape:window-maximized="1"
     inkscape:current-layer="SvgjsSvg1021" />
  <defs
     id="SvgjsDefs1022" />
  <g
     id="SvgjsG1023"
     transform="scale(1.0700007)"
     opacity="1">
    <g
       id="SvgjsG1024"
       class="oss5MJzjPR"
       transform="matrix(0.52607998,0,0,0.52607998,-5.1292798,1.1581871e-6)"
       light-content="false"
       non-strokable="false"
       fill="#11924f">
      <path
         d="M 78.5,100 H 31.43 C 24.938,99.992 19.68,94.734 19.672,88.242 V 72.887 a 1.954,1.954 0 0 1 3.906,0 v 15.355 a 7.857,7.857 0 0 0 7.852,7.852 H 78.5 a 7.86,7.86 0 0 0 7.851,-7.852 V 70.648 c 0,-1.082 0.875,-1.953 1.953,-1.953 1.079,0 1.954,0.871 1.954,1.953 V 88.242 C 90.25,94.734 84.988,99.992 78.5,100 Z M 88.297,67.016 A 1.954,1.954 0 0 1 86.344,65.063 V 20.282 a 3.95,3.95 0 0 0 -1.32,-2.93 L 71.02,4.907 a 3.941,3.941 0 0 0 -2.61,-1 H 33.383 c -5.418,0.008 -9.805,4.399 -9.808,9.813 v 23.805 a 1.954,1.954 0 0 1 -3.907,0 V 13.72 C 19.676,6.15 25.81,0.013 33.383,0 H 68.41 a 7.83,7.83 0 0 1 5.207,1.981 l 14.004,12.45 a 7.834,7.834 0 0 1 2.63,5.859 v 44.773 a 1.954,1.954 0 0 1 -1.953,1.953 z"
         id="path3" />
      <path
         d="M 88.199,21.203 H 76.531 A 7.843,7.843 0 0 1 68.695,13.367 V 2.407 c 0,-1.083 0.875,-1.954 1.953,-1.954 a 1.948,1.948 0 0 1 1.953,1.95 v 10.964 a 3.933,3.933 0 0 0 3.93,3.93 h 11.668 a 1.954,1.954 0 0 1 0,3.906 z M 22.98,65.016 a 1.954,1.954 0 0 1 -1.953,-1.953 c 0,0 -0.016,-5.7 -0.016,-7.883 v -7.84 0.004 c 0,-1.082 0.875,-1.953 1.953,-1.953 h 4.04 c 4.62,0 7.726,3.945 7.726,9.813 0,2.539 -0.664,4.882 -1.875,6.625 -1.383,1.984 -3.406,3.105 -5.695,3.148 -1.156,0.023 -4.047,0.035 -4.168,0.035 z m 1.926,-15.719 v 5.89 c 0,1.352 0,4.055 0.012,5.915 0.804,0 1.656,-0.016 2.148,-0.024 2.57,-0.05 3.738,-3.078 3.738,-5.87 0,-0.977 -0.183,-5.907 -3.82,-5.907 z m 23.586,15.719 a 9.813,9.813 0 0 1 -9.066,-6.059 9.817,9.817 0 0 1 12.823,-12.82 9.81,9.81 0 0 1 6.055,9.067 9.82,9.82 0 0 1 -9.812,9.812 z m 0,-15.719 a 5.91,5.91 0 0 0 -5.457,3.648 5.912,5.912 0 0 0 1.281,6.438 5.91,5.91 0 0 0 6.438,1.277 5.903,5.903 0 0 0 3.644,-5.457 5.911,5.911 0 0 0 -5.906,-5.906 z M 72.07,65.016 a 9.815,9.815 0 0 1 -7.89,-3.973 9.813,9.813 0 0 1 13.374,-13.972 1.954,1.954 0 0 1 0.598,2.754 1.954,1.954 0 0 1 -2.777,0.48 5.913,5.913 0 0 0 -8.953,3.172 5.907,5.907 0 0 0 5.652,7.633 c 1.203,0 2.219,-0.36 3.015,-1.063 h -0.003 c 0.16,-0.144 0.304,-0.297 0.441,-0.46 v 0.003 a 1.952,1.952 0 0 1 2.754,-0.234 c 0.828,0.695 0.93,1.93 0.234,2.754 a 7.863,7.863 0 0 1 -0.832,0.86 c -1.511,1.335 -3.453,2.046 -5.613,2.046 z M 19.586,84.18 h -3 a 6.836,6.836 0 0 1 0,-13.672 h 8.871 a 1.954,1.954 0 0 1 0,3.906 h -8.871 a 2.93,2.93 0 0 0 0,5.86 h 3.008 a 1.954,1.954 0 0 1 0,3.906 z"
         id="path5" />
      <path
         d="M 11.727,78.734 A 1.954,1.954 0 0 1 9.774,76.781 L 9.86,42.406 a 6.833,6.833 0 0 1 6.836,-6.824 l 71.609,-0.016 -0.004,0.004 a 1.95,1.95 0 0 1 1.953,1.953 v 34.938 a 1.95,1.95 0 0 1 -1.953,1.953 H 18.645 a 1.954,1.954 0 0 1 0,-3.906 H 86.344 V 39.461 l -69.656,0.016 a 2.93,2.93 0 0 0 -2.93,2.93 l -0.086,34.374 h 0.004 c 0,1.078 -0.871,1.95 -1.95,1.953 z"
         id="path7" />
    </g>
  </g>
</svg>
