<svg xmlns="http://www.w3.org/2000/svg" viewBox="0 0 350 350"><defs><style>.cls-1{fill:#fff;}.cls-2{fill:#083e60;}</style></defs><g id="Camada_2" data-name="Camada 2"><g id="Camada_1-2" data-name="Camada 1"><rect class="cls-1" width="350" height="350"/><path class="cls-2" d="M92.36,350c-3.57-.74-7.2-1.28-10.71-2.27-22.42-6.3-36.59-23.55-37.58-47-1-24.27,1.65-48.19,10.88-70.91,6-14.67,14.63-27.36,29.16-35.11a57.43,57.43,0,0,1,28.61-6.86c3.17.07,6.51,1.67,9.4,3.24,4.66,2.53,9,5.67,13.51,8.46q39.47,24.33,78.93-.06c3.65-2.26,7.38-4.44,10.81-7,6.29-4.71,13.22-5.3,20.69-4.2,20.41,3,34.82,14.15,44.54,31.95,8.68,15.88,12.58,33.14,14.32,50.92a252.92,252.92,0,0,1,1.2,27.52c-.33,27.4-19.17,47.78-46.47,50.79a11.21,11.21,0,0,0-2,.57Z"/><path class="cls-2" d="M248.89,111.56c.14,41.67-33.53,75.35-75.68,75.7-41.57.36-75.7-33.55-75.91-75.42a75.8,75.8,0,0,1,151.59-.28Z"/></g></g></svg>